<?xml version="1.0" encoding="utf-8"?>
<!-- Generator: Adobe Illustrator 15.0.0, SVG Export Plug-In . SVG Version: 6.00 Build 0)  -->
<!DOCTYPE svg PUBLIC "-//W3C//DTD SVG 1.1//EN" "http://www.w3.org/Graphics/SVG/1.1/DTD/svg11.dtd">
<svg version="1.1" id="Layer_1" xmlns="http://www.w3.org/2000/svg" xmlns:xlink="http://www.w3.org/1999/xlink" x="0px" y="0px"
	 width="200.23px" height="80.785px" viewBox="0 0 200.23 80.785" enable-background="new 0 0 200.23 80.785" xml:space="preserve">
<g>
	<g>
		<path d="M197.811,61.369c-1.547,0.201-3.16,0.336-4.705,0.47c0,0.067,0,0.067,0,0.067c-3.025,21.576-32.801,25.139-33.541,8.2
			c-0.336-7.662,14.52-9.88,29.307-11.292c0.537-13.779-19.916,7.042-27.064-5.716c-6.285-11.216,18.326-22.29,20.951-20.009
			c8.063,7.003,4.264,8.223-1.727,10.357c-11.887,4.237-7.254,5.104-5.65,4.63c9.48-2.801,17.994-1.294,17.926,10.334
			c1.613-0.134,3.158-0.202,4.705-0.336C200.902,57.806,201.104,61.099,197.811,61.369z M188.4,62.309
			c-11.428,1.277-21.309,3.025-20.232,6.654C170.318,75.887,185.174,77.433,188.4,62.309z"/>
	</g>
	<g>
		<path d="M147.389,55.832c-0.854-0.047-0.881-7.502,0.141-14.521c1.258-8.638,14.947-4.173,11.389-2.37
			c-3.727,1.888-5.547,10.833-7.848,15.018C150.275,55.402,147.807,55.855,147.389,55.832z"/>
	</g>
	<g>
		<path d="M52.735,26.116c2.975,6.047-6.184,10.153-10.386,5.618c-1.75-1.932-0.946-5.666,3.302-7.695
			C47.776,22.998,50.751,22.055,52.735,26.116z"/>
	</g>
	<g>
		<path d="M71.466,23.455c3.239,6.582-6.738,11.054-11.31,6.115c-1.907-2.105-1.031-6.166,3.598-8.377
			C66.067,20.062,69.307,19.036,71.466,23.455z"/>
	</g>
	<g>
		<path d="M36.173,76.642c-9.917,6.635-17.808,5.168-15.294-13.479c1.815-13.548-1.188-14.316-3.911-11.732
			c-3.562,3.352-5.796,12.081-5.866,20.392c0.349,2.095,0.768,4.121,1.257,5.936c0.419,2.025-6.146,4.121-9.986,1.258
			c-1.327-0.979-2.375-10.825-2.375-24.164c0-10.964,1.467-18.506,2.793-18.855c10.056-2.724,11.663,1.676,9.498,9.917
			c-0.908,3.421-1.466,6.704-1.746,9.846c2.095-5.796,5.098-10.544,8.52-12.64c9.288-5.796,17.04-3.073,15.573,8.45
			c-2.514,20.602-2.724,23.395-0.489,21.789C36.941,71.404,38.757,74.896,36.173,76.642z"/>
	</g>
	<g>
		<path d="M68.862,74.063c-2.724,4.331-9.777,6.425-16.551,5.657c-9.707-1.047-15.713-9.638-13.408-22.487
			c2.514-13.897,22.626-22.766,29.051-12.85c4.679,7.193-2.723,19.902-14.525,24.582c-0.209,0.069-0.419,0.14-0.628,0.209
			c2.444,6.425,8.24,9.288,13.827,2.934C69.281,69.174,71.167,70.432,68.862,74.063z M51.823,64.845
			c7.333-5.168,9.776-16.551,7.751-19.764c-2.165-3.352-6.355,1.886-7.822,14.596C51.613,61.493,51.613,63.239,51.823,64.845z"/>
	</g>
	<g>
		<path d="M104.068,55.924c-2,3.114-4.889,5.447-7.473,6.285c-3.003,0.908-6.495,0.069-6.495-3.353c0-1.256,1.118-4.19,4.54-5.866
			c-0.21-2.375-1.747-3.003-2.864-2.095c-4.19,3.212-9.288,15.224-7.961,23.883c0.07,0.21,0.07,0.42,0.07,0.63
			c0.209,0.769,0.419,1.536,0.699,2.304c0.698,1.957-6.146,4.121-9.987,1.188c-1.327-0.977-2.025-8.659-2.025-21.999
			c0-10.963,2.444-20.67,3.771-21.02c8.031-2.165,12.709,1.606,10.196,9.009c-1.467,4.19-2.793,8.45-3.562,12.919
			c3.073-8.311,8.17-15.993,12.29-18.018c7.334-3.632,12.641,1.188,11.105,9.707c-0.07,0.14-0.141,0.489-0.141,0.559
			c-0.07,0.698-0.709,2.86-0.488,2.165C105.1,54.265,104.629,55.05,104.068,55.924z"/>
	</g>
	<g>
		<path d="M141.789,32.524c-0.559,2.863-1.047,6.006-1.396,9.358c-1.326,12.5-0.768,23.604,0.768,28.563
			c0.908,2.654,4.33,6.146,7.613,2.515c3.561-3.981,7.473-1.677,2.723,3.003c-2.932,2.863-8.379,4.818-13.826,4.26
			c-3.912-0.488-6.285-3.002-7.684-6.844c-0.557,1.117-1.186,2.095-1.953,2.863c-2.654,2.723-5.867,4.26-9.986,3.84
			c-8.313-0.906-13.199-9.846-10.896-22.557c2.445-13.408,14.178-18.296,20.951-14.735c0.141-1.676,0.279-3.352,0.42-5.098
			c0.068-0.349,0.068-0.698,0.139-1.047c-1.955,0.419-4.051,0.838-6.215,1.187c-30.029,4.958-19.693-19.344-12.361-25.699
			c8.311-7.123,9.219-2.305,6.635-0.698c-4.609,2.933-6.635,19.763,6.564,19.763c2.166,0,4.189-0.14,6.215-0.349
			c4.121-22.767,16.621-33.8,26.748-30.169C167.488,4.73,166.303,22.468,141.789,32.524z M128.102,62.833
			c-0.279-4.4-0.279-9.358-0.209-14.457c0-0.628,0.07-1.257,0.07-1.815c-4.191-1.886-8.311,4.539-9.359,13.409
			c-1.186,10.405,3.492,15.922,6.146,13.408C126.775,71.353,127.822,64.928,128.102,62.833z M158.27,9.2
			c-2.234-3.283-10.404,0.698-15.152,17.808C155.059,21.351,159.807,11.574,158.27,9.2z"/>
	</g>
</g>
</svg>
